<svg width="40" height="40" viewBox="0 0 40 40" fill="none" xmlns="http://www.w3.org/2000/svg">
<path d="M13.4766 15.2062L15.0094 14.4374V28.0586L13.4766 29.5339V15.2062Z" fill="white"/>
<path d="M32.1308 13.7677V18.4828L31.6194 18.8536L30.8553 19.4067V12.7623L31.7073 13.4336L32.1308 13.7677Z" fill="white"/>
<path d="M21.1886 17.8003V28.2264L19.6558 27.2178V18.7274C20.156 18.4253 20.6691 18.1152 21.1886 17.8003Z" fill="white"/>
<path d="M24.4124 19.4322V26.6808L22.8812 25.6722V20.3593L24.4124 19.4322Z" fill="white"/>
<path d="M20.9313 12.3755L19.5759 13.2322L14.9087 16.1812L13.4766 17.0858V15.3388L14.9087 14.4342L18.2508 12.3211L19.6079 11.4644L20.9313 12.3755Z" fill="white"/>
<path d="M8.87975 12.0446V33.9533L7.34692 35.4286V12.9349L8.87975 12.0446Z" fill="white"/>
<path d="M10.4126 13.7693L11.9454 12.9989V31.0075L10.4126 32.4812V13.7693Z" fill="white"/>
<path d="M21.1152 5.11422L19.7102 5.98212L18.3068 6.85003L16.9035 7.71794L15.5001 8.58585L14.7505 9.04937L14.0968 9.45375H14.0952L13.2688 9.96682L11.7888 10.8811L8.8286 12.7128L7.34692 13.6287V11.8593L8.8286 10.9434L11.7888 9.1117L12.7254 8.5315L13.2688 8.19585L14.1287 7.66359L14.7505 7.27999L15.5337 6.79569L16.9371 5.92778L18.3404 5.05828L19.7438 4.19037L21.1152 5.11422Z" fill="white"/>
<path d="M21.0736 8.73129L19.6799 9.5976L18.2861 10.4639L16.8939 11.3302L14.8225 12.6169L13.352 13.5312L11.8815 14.4454L10.4126 15.3581V13.5919L11.8815 12.6776L13.352 11.765L14.8225 10.8507L15.5337 10.408L16.9259 9.54325L18.3197 8.67695L19.7134 7.81064L21.0736 8.73129Z" fill="white"/>
<path d="M25.6943 15.9973L24.5212 16.8764L20.8929 19.5936L19.6558 20.5191V18.7289C20.0601 18.4268 20.4741 18.1168 20.8929 17.8019C21.716 17.1849 22.56 16.5552 23.3767 15.943C23.7747 15.6441 24.1679 15.35 24.5499 15.0639L25.6943 15.9973Z" fill="white"/>
<path d="M32.131 16.6894V18.4812L31.7011 18.852L31.0585 19.4066L30.6845 19.7295L29.6695 20.6086L26.8245 23.0669L25.8782 23.8852V22.1766L25.8335 22.1334L25.8782 22.0951L28.677 19.6751L29.6935 18.7977L30.7101 17.9186L31.0585 17.6165L31.725 17.0395L32.131 16.6894Z" fill="white"/>
<path d="M29.3194 15.1742L28.4323 15.8871L28.2277 16.0517L24.0304 19.4322L22.8812 20.3593V22.1494L24.0304 21.224L28.4323 17.6788L29.2922 16.9852L29.5815 16.7518V15.4044L29.3194 15.1742Z" fill="white"/>
<path d="M32.1006 13.7517V15.5866L31.6483 15.2286L30.8267 14.5781L30.4703 14.2952L29.2907 13.3617L28.1111 12.4283L24.5708 9.62636L23.3928 8.69292L22.2132 7.75948L21.0336 6.82604L19.854 5.8926L18.6744 4.95916L19.8828 4.08167L21.0624 5.0151L22.242 5.94854L23.4216 6.88198L24.6011 7.81542L25.7791 8.74886L29.3195 11.5508L30.4991 12.4842L30.8267 12.7432L31.6787 13.4177L32.1006 13.7517Z" fill="white"/>
<path d="M25.6944 15.9974L24.4877 16.8749L23.3081 15.9415L19.7677 13.1396L18.5881 12.2061L19.7965 11.3286L20.9761 12.2621L24.5164 15.064L25.6944 15.9974Z" fill="white"/>
<path d="M29.5815 16.7518V15.4044L29.2906 15.1742L28.3076 14.3958L23.391 10.5054L22.213 9.57199L21.0334 8.63855L19.8539 7.70511L18.6455 8.58261L19.8251 9.51604L21.0047 10.4495L22.1843 11.3829L28.0822 16.0517L28.3076 16.2307L29.2618 16.9852L29.5815 16.7518Z" fill="white"/>
<path d="M32.131 26.254V28.0905L25.9342 24.0115L25.8335 23.946L25.9342 23.8852V22.1766L27.288 23.0669L32.131 26.254Z" fill="white"/>
<path d="M32.1309 33.5937V35.4286L21.1886 28.2264L19.6558 27.2178V25.3829L21.1886 26.3915L32.1309 33.5937Z" fill="white"/>
<path d="M32.1309 29.924V31.7589L24.4124 26.6809L22.8812 25.6723V23.8374L24.4124 24.846L32.1309 29.924Z" fill="white"/>
<path d="M26.6902 22.1335H25.8335V23.9444H26.6902V22.1335Z" fill="white"/>
</svg>
